<svg xmlns="http://www.w3.org/2000/svg" xmlns:xlink="http://www.w3.org/1999/xlink" width="512" zoomAndPan="magnify" viewBox="0 0 384 383.999986" height="512" preserveAspectRatio="xMidYMid meet" version="1.0"><rect x="-38.4" width="460.8" fill="#fefefe" y="-38.399999" height="460.799983" fill-opacity="1"/><path fill="#bb6830" d="M 181.875 0 C 182.433594 -0.0351562 182.996094 -0.0507812 183.558594 -0.046875 L 184.640625 -0.0507812 L 187.027344 -0.0507812 C 187.867188 -0.0507812 188.710938 -0.0507812 189.550781 -0.046875 C 190.84375 -0.046875 192.136719 -0.046875 193.429688 -0.0507812 C 194.246094 -0.0507812 195.0625 -0.0507812 195.878906 -0.0507812 L 197.054688 -0.0507812 L 198.144531 -0.046875 L 199.105469 -0.046875 C 199.875 0 199.875 0 200.625 0.375 C 201.28125 0.4375 201.941406 0.476562 202.601562 0.511719 C 221.839844 1.570312 240.820312 6.515625 257.125 17.039062 C 259.644531 18.726562 262.027344 20.582031 264.375 22.5 L 265.074219 23.066406 C 269.597656 26.769531 273.855469 30.800781 277.480469 35.398438 C 277.980469 36.03125 278.492188 36.65625 279.019531 37.269531 C 289.15625 49.09375 296.015625 64.261719 299.027344 79.480469 C 299.238281 80.609375 299.433594 81.742188 299.625 82.875 L 299.8125 83.96875 C 301.5625 94.820312 301.5 106.554688 299.625 117.375 L 299.453125 118.433594 C 297.121094 132.597656 291.332031 146.152344 283.125 157.875 L 282.699219 158.488281 C 278.132812 165.050781 273.0625 171.183594 267.625 177.042969 C 266.996094 177.722656 266.371094 178.410156 265.753906 179.101562 C 263.296875 181.84375 260.714844 184.449219 258.117188 187.054688 L 257.550781 187.621094 C 255.589844 189.59375 253.609375 191.515625 251.496094 193.324219 C 250.671875 194.054688 249.953125 194.847656 249.234375 195.679688 C 248.082031 196.992188 246.878906 198.257812 245.625 199.476562 C 244.046875 201.039062 242.636719 202.675781 241.253906 204.410156 C 240.644531 205.167969 240.019531 205.914062 239.378906 206.648438 C 234.226562 212.542969 230.25 218.789062 228.589844 226.523438 C 227.109375 234.09375 226.625 241.730469 226.273438 249.414062 C 225.898438 257.410156 225.898438 257.410156 224.25 260.25 C 223.113281 261.589844 221.867188 262.375 220.3125 263.179688 C 217.503906 264.132812 214.714844 264.058594 211.777344 264.058594 L 210.390625 264.066406 C 209.140625 264.070312 207.890625 264.074219 206.640625 264.074219 L 204.289062 264.078125 C 201.835938 264.085938 199.378906 264.085938 196.921875 264.089844 C 194.097656 264.089844 191.273438 264.097656 188.449219 264.109375 C 186.261719 264.117188 184.070312 264.121094 181.878906 264.121094 C 180.574219 264.121094 179.269531 264.125 177.964844 264.128906 C 176.507812 264.136719 175.050781 264.136719 173.589844 264.132812 L 172.304688 264.144531 C 169.523438 264.128906 166.871094 263.855469 164.25 262.875 C 162.597656 261.746094 161.222656 260.429688 160.125 258.75 C 159.484375 257.125 159.277344 255.765625 159.273438 254.023438 L 159.269531 252.570312 C 159.273438 252.050781 159.277344 251.535156 159.28125 251.015625 L 159.285156 250.210938 C 159.382812 231.234375 161.453125 210.734375 171.121094 194.035156 C 172.699219 191.386719 174.4375 188.863281 176.25 186.375 L 176.71875 185.734375 C 182.210938 178.273438 188.660156 170.972656 195.65625 164.894531 C 197.296875 163.46875 198.882812 161.992188 200.460938 160.5 L 201.273438 159.734375 C 202.761719 158.332031 204.226562 156.914062 205.65625 155.453125 C 206.273438 154.851562 206.921875 154.300781 207.585938 153.75 C 209.847656 151.796875 211.816406 149.546875 213.835938 147.347656 C 214.460938 146.667969 215.089844 145.992188 215.71875 145.320312 C 224.675781 135.757812 232.707031 125.035156 235.804688 112.101562 C 237.589844 104.035156 237.082031 95.382812 234.679688 87.515625 C 232.832031 82.335938 230.085938 78.019531 226.5 73.875 L 225.683594 72.929688 C 221.585938 68.53125 215.890625 65.375 210.191406 63.574219 C 206.921875 62.597656 203.644531 61.882812 200.25 61.5 L 199.253906 61.375 C 189.644531 60.351562 179.09375 60.875 170.15625 64.808594 C 167.113281 66.21875 164.519531 67.894531 162 70.125 C 161.601562 70.4375 161.203125 70.75 160.804688 71.0625 C 159.441406 72.273438 158.300781 73.609375 157.125 75 L 156.210938 76.027344 C 150.0625 83 145.71875 90.980469 141.625 99.261719 C 140.671875 101.09375 139.777344 102.359375 138 103.5 C 136.199219 104.285156 134.644531 104.707031 132.679688 104.515625 C 130.957031 104.308594 129.523438 103.820312 127.945312 103.121094 L 127.125 102.769531 C 126.246094 102.390625 125.371094 102.011719 124.5 101.625 L 122.722656 100.851562 C 120.8125 100.011719 118.90625 99.167969 117 98.320312 L 112.742188 96.433594 C 112.382812 96.273438 112.023438 96.113281 111.652344 95.949219 C 109.128906 94.832031 106.605469 93.722656 104.078125 92.613281 C 103.730469 92.460938 103.386719 92.308594 103.027344 92.152344 C 101.691406 91.566406 100.355469 90.984375 99.019531 90.398438 C 96.082031 89.113281 93.148438 87.828125 90.234375 86.507812 L 89.113281 86 C 87.523438 85.195312 86.21875 84.289062 85.125 82.875 C 84.207031 81.105469 83.667969 79.460938 83.542969 77.464844 C 84.066406 68.765625 90.679688 58.992188 95.296875 51.9375 C 95.773438 51.246094 96.257812 50.558594 96.75 49.875 L 97.222656 49.214844 C 99.453125 46.089844 101.773438 43.0625 104.25 40.125 L 105.222656 38.941406 C 107.429688 36.28125 109.773438 33.78125 112.21875 31.335938 L 113.066406 30.488281 C 114.8125 28.757812 116.625 27.09375 118.5 25.5 L 119.171875 24.921875 C 125.070312 19.886719 131.523438 15.625 138.375 12 L 139.070312 11.625 C 151.574219 4.84375 166.015625 1.582031 180.109375 0.511719 L 181.5 0.375 Z M 209.496094 302.097656 C 213.984375 304.242188 217.652344 307.101562 221.25 310.5 L 222.117188 311.292969 C 227.085938 316.003906 230.691406 322.417969 232.664062 328.945312 C 234.777344 336.363281 235.058594 343.867188 233.25 351.375 C 231.570312 357.746094 228.863281 363.554688 224.625 368.625 L 223.707031 369.742188 C 218.878906 375.324219 212.644531 379.347656 205.734375 381.867188 C 198.652344 384.28125 190.929688 384.882812 183.535156 383.613281 C 176.957031 382.269531 170.25 379.492188 165.023438 375.226562 C 164.414062 374.679688 163.808594 374.121094 163.21875 373.554688 C 162.355469 372.707031 162.355469 372.707031 161.273438 371.867188 C 160.042969 370.851562 159.078125 369.699219 158.109375 368.4375 L 157.570312 367.738281 C 152.722656 361.359375 149.84375 354.328125 148.757812 346.390625 C 147.867188 338.890625 148.964844 331.34375 151.921875 324.398438 C 154.304688 319.070312 157.472656 314.585938 161.625 310.5 L 162.558594 309.566406 C 167.402344 304.96875 173.636719 301.519531 180.105469 299.894531 C 190.089844 297.539062 200.027344 297.960938 209.496094 302.097656 " fill-opacity="1" fill-rule="nonzero"/></svg>