<svg xmlns="http://www.w3.org/2000/svg" xmlns:xlink="http://www.w3.org/1999/xlink" width="500" zoomAndPan="magnify" viewBox="0 0 375 374.999991" height="500" preserveAspectRatio="xMidYMid meet" version="1.0"><path fill="#f8d794" d="M 193.292969 123.488281 C 196.253906 124.644531 198.894531 126.242188 201.027344 128.621094 C 202.996094 131.257812 204.351562 133.875 204.78125 137.15625 C 205.066406 140.511719 204.648438 143.550781 203.351562 146.660156 C 201.898438 149.597656 199.695312 151.996094 196.972656 153.820312 C 195.5 154.679688 193.898438 155.246094 192.300781 155.824219 L 191.46875 156.273438 C 190.921875 157.394531 191.09375 158.71875 191.105469 159.941406 L 191.113281 161.152344 L 191.125 162.078125 L 192.414062 162.402344 C 198.523438 164.042969 203.714844 166.8125 208.21875 171.316406 C 208.753906 171.859375 209.289062 172.40625 209.824219 172.949219 C 215.792969 179.027344 222.15625 182.855469 229.839844 186.433594 C 233.023438 187.925781 236.15625 189.515625 239.273438 191.140625 C 246.777344 195.046875 254.363281 198.648438 262.816406 199.96875 L 263.875 200.140625 C 265.355469 200.328125 266.808594 200.398438 268.296875 200.445312 C 268.898438 200.46875 269.503906 200.492188 270.105469 200.515625 C 271.042969 200.554688 271.980469 200.585938 272.914062 200.617188 C 278.101562 200.785156 283.273438 201.230469 287.992188 203.597656 L 288.710938 203.945312 C 291.128906 205.171875 293.207031 206.730469 295.246094 208.503906 L 296.019531 209.171875 C 299.089844 212.039062 301.511719 215.902344 303.097656 219.769531 C 303.402344 220.800781 303.605469 221.78125 303.78125 222.839844 C 300.589844 221.945312 297.476562 220.828125 294.351562 219.726562 L 292.550781 219.09375 C 287.542969 217.332031 282.539062 215.566406 277.539062 213.789062 C 272.394531 211.964844 267.242188 210.152344 262.085938 208.359375 C 257.222656 206.667969 252.367188 204.957031 247.515625 203.234375 C 240.507812 200.746094 233.488281 198.292969 226.460938 195.859375 C 224.164062 195.058594 221.867188 194.257812 219.574219 193.453125 C 199.394531 186.34375 199.394531 186.34375 178.152344 186.65625 C 177.152344 186.871094 176.160156 187.121094 175.171875 187.386719 L 174.328125 187.609375 C 171.007812 188.511719 167.765625 189.640625 164.519531 190.773438 C 163.191406 191.230469 161.863281 191.691406 160.535156 192.148438 L 159.535156 192.492188 C 156.707031 193.46875 153.863281 194.410156 151.019531 195.347656 C 144.636719 197.453125 138.324219 199.742188 132.019531 202.074219 C 125.972656 204.308594 119.910156 206.480469 113.820312 208.59375 C 111.722656 209.320312 109.625 210.050781 107.527344 210.78125 L 106.109375 211.277344 C 101.558594 212.863281 97.011719 214.464844 92.46875 216.078125 L 90.46875 216.785156 C 87.789062 217.734375 85.113281 218.6875 82.441406 219.652344 C 81.433594 220.011719 80.425781 220.375 79.417969 220.738281 C 78.75 220.976562 78.085938 221.21875 77.421875 221.460938 L 76.246094 221.882812 L 75.242188 222.246094 C 74.375 222.5 74.375 222.5 73.007812 222.5 C 73.167969 220.472656 73.574219 219.019531 74.566406 217.25 L 74.933594 216.582031 C 76.035156 214.628906 77.339844 212.921875 78.8125 211.234375 L 79.371094 210.527344 C 82.324219 206.878906 86.464844 204.460938 90.761719 202.699219 C 93.980469 201.535156 97.164062 200.972656 100.570312 200.847656 L 102.339844 200.769531 C 103.253906 200.730469 104.167969 200.695312 105.082031 200.660156 C 110.40625 200.457031 115.503906 199.863281 120.632812 198.347656 L 121.539062 198.082031 C 126.164062 196.695312 130.425781 194.664062 134.726562 192.496094 C 135.984375 191.863281 137.25 191.234375 138.511719 190.601562 L 140.0625 189.828125 C 153.234375 183.242188 153.234375 183.242188 154.269531 182.726562 C 159.457031 180.113281 163.992188 176.039062 167.980469 171.863281 C 171.855469 167.824219 176.269531 164.75 181.695312 163.089844 C 184.285156 162.417969 184.285156 162.417969 185.664062 162.417969 L 185.640625 161.53125 C 185.617188 160.441406 185.601562 159.351562 185.589844 158.261719 C 185.582031 157.792969 185.574219 157.320312 185.5625 156.851562 C 185.542969 156.171875 185.535156 155.496094 185.53125 154.816406 L 185.507812 153.582031 C 185.664062 152.519531 185.664062 152.519531 186.277344 151.714844 C 187.316406 150.9375 188.40625 150.738281 189.652344 150.492188 C 191.828125 149.996094 193.773438 149.476562 195.5625 148.078125 C 197.1875 146.566406 198.265625 145.054688 198.976562 142.960938 C 199.472656 140.808594 199.566406 138.707031 199.121094 136.539062 C 198.425781 134.3125 197.304688 132.71875 195.691406 131.046875 C 194.417969 129.917969 193.160156 129.285156 191.53125 128.765625 C 189.328125 128.339844 186.671875 128.269531 184.53125 129.003906 C 183.898438 129.289062 183.898438 129.289062 183.273438 129.644531 L 182.5 130.0625 C 180.738281 131.113281 179.644531 132.265625 178.558594 134 C 177.574219 135.859375 177.265625 137.597656 176.980469 139.667969 L 176.789062 140.570312 L 176.105469 141.253906 C 174.949219 141.441406 173.847656 141.429688 172.691406 141.253906 L 171.945312 140.632812 C 171.429688 138.613281 171.78125 136.75 172.253906 134.742188 C 172.980469 132.28125 174.042969 130.507812 175.765625 128.621094 L 176.394531 127.898438 C 178.484375 125.628906 180.996094 124.222656 183.894531 123.203125 C 186.96875 122.382812 190.265625 122.535156 193.292969 123.488281 " fill-opacity="1" fill-rule="nonzero"/></svg>