<svg xmlns="http://www.w3.org/2000/svg" fill="none" viewBox="0 0 616 194">
  <mask id="a" width="562" height="172" x="27" y="10" maskUnits="userSpaceOnUse" style="mask-type:luminance">
    <path fill="#fff" d="M588.933 10.2H27.067v171.733h561.866z"/>
  </mask>
  <g fill="#284139" mask="url(#a)">
    <path d="m62.374 138.13-.496-1.692s.474-.16 1.43-.496q1.455-.523 3.15-1.954c1.122-.97 1.968-2.435 2.537-4.404.561-1.983.393-4.616-.496-7.904L45.429 35.9c-1.131-4.272-2.852-7.466-5.163-9.566-2.32-2.1-4.434-3.478-6.359-4.142l-2.887-1.02-.496-1.692h35.933l.496 1.691s-.481.175-1.43.525q-1.431.504-3.15 2.013-1.694 1.519-2.537 4.404-.852 2.887.525 7.788l22.867 85.779c.233.452.408.846.525 1.196.117.335.219.67.32 1.02.118-.35.205-.685.263-1.02.059-.35.088-.744.088-1.196L106.62 35.9q.842-4.9-.263-7.787c-.722-1.925-1.677-3.39-2.858-4.404q-1.783-1.509-3.325-2.013l-1.517-.525.175-1.691h26.279l-.35 1.691s-.933.343-2.8 1.021q-2.8.994-5.95 4.142c-2.085 2.1-3.514 5.294-4.287 9.567L89.499 121.68c-.569 3.172-.51 5.716.175 7.641.678 1.925 1.611 3.369 2.8 4.317q1.771 1.431 3.15 2.129a49 49 0 0 0 2.187.671l.525 1.692zM165.276 19.48v1.691l-1.633.525q-1.61.504-3.646 2.013c-1.342 1.013-2.552 2.48-3.617 4.404q-1.606 2.887-1.604 7.788v85.779q-.002 4.93 1.604 7.904c1.065 1.969 2.275 3.434 3.617 4.404 1.356.955 2.574 1.604 3.646 1.954 1.086.336 1.633.496 1.633.496v1.692h-35.933v-1.692s.532-.16 1.604-.496c1.064-.35 2.304-.999 3.704-1.954 1.414-.97 2.661-2.435 3.733-4.404q1.632-2.973 1.634-7.904V35.9q-.002-4.9-1.634-7.787c-1.072-1.925-2.319-3.39-3.733-4.404-1.4-1.006-2.64-1.677-3.704-2.013l-1.604-.525V19.48zm79.838 13.562v91.525q-.002 4.235 1.604 6.709 1.6 2.451 3.646 3.558c1.356.722 2.574 1.167 3.646 1.342 1.065.175 1.604.262 1.604.262v1.692h-35.933v-1.692l1.604-.262q1.631-.26 3.733-1.342 2.124-1.107 3.734-3.558c1.064-1.648 1.604-3.887 1.604-6.709v-3.062l-35.409-83.388v86.45q-.002 4.235 1.605 6.709c1.064 1.633 2.275 2.821 3.616 3.558q2.037 1.081 3.646 1.342l1.633.262v1.692h-35.933v-1.692l1.604-.262q1.6-.26 3.646-1.342c1.356-.737 2.574-1.925 3.646-3.558 1.065-1.648 1.604-3.887 1.604-6.709V33.042c0-2.836-.539-5.075-1.604-6.708-1.072-1.633-2.29-2.815-3.646-3.558q-2.047-1.104-3.646-1.342l-1.604-.263V19.48h35.933v1.691l-2.129.438c-1.4.277-2.931.977-4.579 2.1-1.633 1.13-2.793 2.997-3.471 5.6l35.088 82.367V33.042c0-2.836-.54-5.075-1.604-6.708-1.072-1.633-2.319-2.815-3.734-3.558q-2.102-1.104-3.733-1.342l-1.604-.263V19.48h35.933v1.691l-1.604.263c-1.072.16-2.29.605-3.646 1.342-1.363.743-2.581 1.895-3.646 3.47q-1.606 2.364-1.604 6.796m29.648 105.088v-1.692s.532-.16 1.604-.496c1.086-.35 2.333-1.028 3.733-2.041 1.415-1.029 2.662-2.523 3.734-4.492 1.064-1.983 1.604-4.557 1.604-7.729V35.9q0-5.915-2.363-9.041c-1.575-2.1-3.164-3.544-4.754-4.346h-2.012c-2.961 0-5.367 1.08-7.234 3.238q-2.776 3.215-4.316 7.962a59.5 59.5 0 0 0-2.217 9.596c-.452 3.208-.729 5.892-.846 8.05a582 582 0 0 0-.146 3.208h-1.691V19.48h64.75v35.087h-1.692l-.175-3.208q-.177-3.237-.846-8.05a56.5 56.5 0 0 0-2.217-9.596q-1.518-4.747-4.316-7.962c-1.867-2.159-4.273-3.238-7.204-3.238h-2.042c-1.458.802-2.99 2.246-4.579 4.346q-2.363 3.126-2.363 9.042v85.779q-.001 4.756 1.604 7.729c1.087 1.969 2.305 3.463 3.646 4.492q2.037 1.518 3.646 2.041c1.065.336 1.604.496 1.604.496v1.692zm54.082 0 .321-1.692s.933-.335 2.8-1.021c1.867-.678 3.865-2.056 6.008-4.141 2.159-2.1 3.632-5.294 4.434-9.596l22.021-85.78q1.017-4.725 0-7.612c-.686-1.925-1.619-3.39-2.8-4.404-1.189-1.028-2.29-1.706-3.296-2.042a21 21 0 0 0-1.634-.496l-.583-.175-.496-1.691h35.934l.525 1.691-1.459.525c-.955.336-1.998.977-3.121 1.925-1.13.956-1.983 2.421-2.566 4.405q-.854 2.975.525 7.875l23.041 85.779c1.145 4.302 2.873 7.496 5.192 9.596 2.312 2.085 4.419 3.463 6.329 4.141 1.925.686 2.888 1.021 2.888 1.021l.525 1.692h-35.088l-.525-1.692s.474-.16 1.429-.496q1.455-.523 3.15-2.041c1.123-1.029 1.969-2.523 2.538-4.492q.84-2.973-.496-7.729l-5.775-24.238h-35.758l-6.096 24.238q-.852 4.756.233 7.729c.737 1.969 1.699 3.463 2.888 4.492q1.773 1.518 3.296 2.041c1.028.336 1.545.496 1.545.496l-.175 1.692zm25.259-44.071 33.22.175-17.791-63.583zm156.282-1.517.175-.525v46.113h-1.692l-.087-2.013c-.058-1.356-.204-2.946-.438-4.754q-.352-2.71-1.108-4.754c-.51-1.356-1.159-2.042-1.954-2.042-.335 0-.839.343-1.517 1.021-3.383 3.5-7.481 6.439-12.279 8.808-4.805 2.378-10.762 3.559-17.879 3.559-8.152 0-14.992-1.408-20.533-4.229q-8.291-4.222-13.3-10.938c-3.325-4.47-5.877-9.187-7.642-14.146-1.75-4.973-2.939-9.69-3.558-14.146-.606-4.47-.905-8.115-.905-10.937V79.3s.015-1.437.059-4.317c.058-2.873.394-6.57 1.021-11.083.619-4.529 1.808-9.363 3.558-14.496 1.75-5.148 4.287-9.983 7.612-14.496 3.34-4.528 7.759-8.232 13.242-11.113 5.483-2.872 12.294-4.316 20.446-4.316q9.999 0 17.208 3.15c4.798 2.085 8.838 4.754 12.104 8.02 1.007.803 1.882.722 2.625-.233.737-.97 1.298-2.304 1.692-3.996a38 38 0 0 0 .846-4.666l.262-2.13h1.692v46.463h-3.033q-.352-5.948-1.371-13.067c-.685-4.74-1.75-8.983-3.208-12.716q-3.238-8.105-11.375-12.95c-5.425-3.223-11.244-4.842-17.442-4.842-5.542 0-10.15 1.364-13.825 4.083q-5.514 4.058-8.896 10.413-3.388 6.365-5.104 13.562-1.695 7.209-2.363 13.563c-.452 4.244-.67 7.722-.67 10.442v8.137c0 2.705.189 6.205.583 10.5q.61 6.453 2.304 13.563a57.4 57.4 0 0 0 5.075 13.562c2.253 4.302 5.25 7.809 8.983 10.529q5.6 4.056 13.913 4.054c5.52 0 10.456-1.407 14.817-4.229q6.53-4.254 10.762-11.112 4.254-6.882 5.104-14.496-2.218-1.017-4.579-3.063a303 303 0 0 0-9.829-8.312 178 178 0 0 0-11.2-8.37c-3.85-2.662-7.583-4.843-11.2-6.534-3.617-1.692-6.956-2.538-10.004-2.538-1.911 0-3.602.394-5.075 1.167l2.187-2.013c1.473-1.356 3.486-2.72 6.038-4.083 2.545-1.356 5.454-2.042 8.721-2.042 3.85-.094 7.831.817 11.958 2.742a73 73 0 0 1 11.871 6.942q5.685 4.057 10.091 7.787c2.932 2.494 5.134 4.244 6.592 5.25l.263.263zm74.902 45.588h-70.671v-1.692s.533-.16 1.604-.496c1.065-.35 2.305-.999 3.705-1.954 1.414-.97 2.661-2.435 3.733-4.404q1.631-2.973 1.633-7.904V35.9c0-3.383-.547-6.051-1.633-8.02q-1.61-2.975-3.733-4.404c-1.4-.97-2.64-1.59-3.705-1.867l-1.604-.438V19.48h70.671v35.087h-1.692l-.175-3.208c-.102-2.158-.35-4.842-.758-8.05a47.2 47.2 0 0 0-2.217-9.596q-1.605-4.747-4.316-7.962-2.69-3.238-7.117-3.238H540.05v39.492h22.866c1.809 0 3.274-.759 4.404-2.275q1.684-2.297 2.713-5.775a43 43 0 0 0 1.429-6.854q.438-3.382.525-5.659l.088-2.304h1.691v48.825h-1.691v-2.275q0-2.297-.35-5.775a40 40 0 0 0-1.255-6.883q-.94-3.381-2.712-5.659c-1.189-1.53-2.742-2.304-4.667-2.304H540.05v70h28.962c2.953 0 5.323-1.064 7.117-3.208q2.71-3.205 4.316-7.963a47 47 0 0 0 2.217-9.566c.408-3.223.656-5.907.758-8.05l.175-3.238h1.692z"/>
  </g>
  <mask id="b" width="427" height="69" x="99" y="125" maskUnits="userSpaceOnUse" style="mask-type:luminance">
    <path fill="#fff" d="M525.467 125.933h-425.6v67.2h425.6z"/>
  </mask>
  <g fill="#bb6830" mask="url(#b)">
    <path d="M129.7 161.385h-14.292a262 262 0 0 0-1.575 3.879q-.645 1.693-1.05 2.916a21 21 0 0 0-.554 2.1 8 8 0 0 0-.146 1.371q0 1.522.963 2.071c.642.372 1.706.554 3.208.554v2.042h-13.008v-2.042a12.3 12.3 0 0 0 2.1-.408 5.9 5.9 0 0 0 1.575-.758 4.8 4.8 0 0 0 1.167-1.255c.35-.525.678-1.152.991-1.895l13.913-34.884h2.304l12.162 30.217c.817 2.005 1.524 3.609 2.13 4.812q.927 1.785 1.779 2.684.873.906 1.866 1.166.985.263 2.363.263v2.1h-17.442v-2.1c1.881 0 3.179-.175 3.879-.525.715-.35 1.08-.941 1.08-1.779q-.002-.525-.059-.963a5.3 5.3 0 0 0-.175-.991 8.4 8.4 0 0 0-.379-1.225q-.24-.667-.612-1.575zm-13.242-2.684h12.221l-5.95-15.808zm51.037 9.042q0 2.251.087 3.529c.073.861.263 1.51.554 1.954q.46.676 1.313.904c.583.139 1.385.248 2.421.321v1.867h-14.234v-1.867q1.543-.111 2.45-.321.93-.229 1.4-.875.493-.633.613-1.837.144-1.192.146-3.238v-6.854q0-3.062-.088-5.075c-.058-1.356-.16-2.289-.291-2.8-.117-.466-.248-.824-.38-1.079-.138-.27-.371-.481-.7-.642-.313-.175-.729-.277-1.254-.32a19 19 0 0 0-2.012-.088v-1.896l8.75-2.012.671 5.337h.291q2.387-2.712 5.046-4.025 2.647-1.312 5.863-1.312 3.38.001 5.687 1.371 2.299 1.347 3.208 3.908h.205a13.7 13.7 0 0 1 4.812-3.879 13.6 13.6 0 0 1 6.067-1.4c1.67 0 3.194.277 4.579.816q2.069.821 3.121 2.275c.641.817 1.094 1.896 1.371 3.238.269 1.342.408 3.172.408 5.483v8.517c0 1.48.036 2.647.117 3.5.094.86.277 1.517.554 1.983q.437.676 1.312.904.897.21 2.45.321v1.867h-14.233v-1.867c.992-.036 1.786-.131 2.392-.291.619-.175 1.086-.482 1.4-.934q.492-.666.612-1.837.144-1.161.146-3.209v-6.737q-.002-3.063-.321-5.163c-.219-1.414-.576-2.566-1.079-3.441-.489-.875-1.138-1.502-1.954-1.896-.802-.386-1.772-.583-2.917-.583q-2.364 0-4.433 1.312a9.2 9.2 0 0 0-3.209 3.5q-.293.525-.466 1.05c-.117.336-.219.7-.292 1.108q-.122.613-.146 1.488a58 58 0 0 0-.029 2.129v6.796q-.001 2.22.117 3.5c.073.86.262 1.517.554 1.983.306.452.766.751 1.371.904.598.139 1.429.248 2.479.321v1.867h-14.263v-1.867q1.512-.111 2.421-.321c.598-.153 1.05-.444 1.342-.875q.461-.633.583-1.837.144-1.192.146-3.238v-6.737c0-2.078-.109-3.821-.321-5.221-.218-1.414-.568-2.567-1.05-3.442-.466-.875-1.101-1.494-1.896-1.866-.78-.365-1.742-.554-2.887-.554q-2.397 0-4.521 1.312c-1.4.875-2.464 2.042-3.179 3.5-.175.35-.335.7-.467 1.05-.116.336-.218.7-.291 1.108a13 13 0 0 0-.117 1.488 58 58 0 0 0-.029 2.129zm60.964 8.575h-1.166v-9.217h1.312c1.4 5.039 3.938 7.554 7.613 7.554q2.155 0 3.412-1.05c.831-.7 1.254-1.757 1.254-3.179 0-.525-.087-.969-.262-1.341-.161-.387-.459-.788-.904-1.196q-.676-.613-1.867-1.4-1.201-.811-3.179-2.071a46 46 0 0 1-3.179-2.071c-.875-.642-1.626-1.29-2.246-1.954-.605-.656-1.065-1.356-1.371-2.1q-.437-1.136-.437-2.654 0-1.805.612-3.325.61-1.544 1.692-2.596a7.9 7.9 0 0 1 2.508-1.692c.97-.408 2.027-.612 3.179-.612.948 0 1.94.16 2.975.466 1.05.292 1.962.686 2.742 1.167l1.079-1.108h1.021v7.7h-1.4c-.78-2.173-1.633-3.719-2.567-4.638-.933-.933-2.085-1.4-3.441-1.4q-1.815 0-2.917.963c-.722.641-1.079 1.538-1.079 2.683q-.001.907.291 1.575.287.678.934 1.313.637.645 1.633 1.312.984.676 2.363 1.517c1.531.977 2.843 1.837 3.937 2.596q1.628 1.113 2.654 2.216 1.017 1.084 1.488 2.275.494 1.17.496 2.654c0 2.553-.832 4.543-2.48 5.98-1.633 1.443-3.784 2.158-6.445 2.158q-4.2.002-7.175-2.392zm32.586-24.996v-1.983q2.854-1.663 4.462-3.325c1.065-1.109 1.881-2.428 2.45-3.967h1.575v6.738h7.175v2.537h-7.175v16.275q0 1.87.175 3.15c.117.861.321 1.546.613 2.071.291.51.656.868 1.108 1.079.467.219 1.057.321 1.779.321q1.335.002 2.275-.554.928-.549 1.867-1.896l1.312 1.021c-.488 1.327-1.356 2.333-2.595 3.033-1.225.678-2.757 1.021-4.58 1.021q-3.53 0-5.366-1.663c-1.225-1.122-1.838-2.749-1.838-4.87v-18.988zm56.809 20.008q-4.55 5.513-11.288 5.513-3.151-.002-5.746-1.021c-1.713-.7-3.179-1.677-4.404-2.946q-1.84-1.925-2.858-4.55c-.685-1.764-1.021-3.733-1.021-5.891q0-3.26 1.05-6.038 1.074-2.766 3.033-4.754c1.298-1.32 2.859-2.348 4.667-3.092 1.808-.758 3.777-1.137 5.921-1.137q5.186 0 8.021 2.8 2.856 2.8 2.858 8.05c0 .51-.102.816-.292.933-.196.102-.656.146-1.37.146h-17.617q-.12.438-.175 1.05c-.044.408-.058.868-.058 1.371 0 1.852.218 3.529.67 5.046.445 1.516 1.087 2.814 1.925 3.879q1.279 1.61 3.005 2.508 1.747.875 3.879.875 2.274.002 4.2-.992 1.925-.984 3.937-3.237zm-8.838-14.437c.715 0 1.291-.015 1.721-.058.423-.037.744-.102.963-.205a.93.93 0 0 0 .437-.466c.073-.19.117-.452.117-.788 0-1.633-.54-2.931-1.604-3.908q-1.576-1.488-4.288-1.488-5.808 0-7.175 6.913zm34.23 10.908q0 2.19.088 3.471c.073.861.262 1.51.554 1.954q.46.676 1.313.904c.583.139 1.385.248 2.42.321v1.867h-14.233v-1.867q1.542-.052 2.45-.291c.598-.175 1.057-.474 1.371-.905q.49-.633.642-1.837.143-1.192.145-3.238v-6.27c0-2.428-.029-4.317-.087-5.659-.058-1.356-.248-2.362-.554-3.004q-.438-.963-1.4-1.137c-.642-.132-1.539-.205-2.684-.205v-1.866l9.363-2.042.758 6.621h.204a13 13 0 0 1 1.75-2.917q1.05-1.334 2.275-2.275a10.1 10.1 0 0 1 2.567-1.487 7.5 7.5 0 0 1 2.742-.525c1.145 0 2.049.277 2.712.816.657.547.992 1.284.992 2.217 0 .861-.277 1.531-.817 2.013-.525.488-1.298.729-2.304.729-.569 0-1.05-.066-1.458-.204a10 10 0 0 1-1.05-.467q-.44-.23-.846-.438a1.67 1.67 0 0 0-.875-.233c-.977 0-1.947.627-2.917 1.867-.955 1.225-1.691 2.785-2.216 4.666a23 23 0 0 0-.671 3.5 34 34 0 0 0-.234 4.113zm50.325 4.025h-.233c-1.283 1.809-2.654 3.106-4.113 3.879q-2.163 1.138-5.104 1.138c-2.027 0-3.894-.365-5.6-1.079a13.1 13.1 0 0 1-4.375-3.063c-1.225-1.298-2.187-2.858-2.887-4.666q-1.05-2.735-1.05-5.95 0-3.172 1.05-5.863 1.05-2.71 2.887-4.667a12.8 12.8 0 0 1 4.404-3.033q2.595-1.106 5.571-1.108 2.59.001 4.579.846c1.342.568 2.64 1.48 3.909 2.741v-5.483q0-3.03-.088-5.075-.089-2.034-.233-2.8-.293-1.161-1.517-1.633-1.224-.495-4.025-.496v-1.604l10.996-2.042v30.887c0 2.472.015 4.507.058 6.096q.057 2.397.321 3.384.14.643.379 1.079.263.438.7.671.46.24 1.225.35c.525.08 1.196.116 2.013.116v1.809l-8.867.583zm-1.079-11.841c0-1.845-.102-3.252-.292-4.23-.196-.969-.583-1.808-1.166-2.508a7.77 7.77 0 0 0-3.121-2.421c-1.269-.561-2.53-.846-3.792-.846-2.566 0-4.521 1.065-5.862 3.18-1.327 2.121-1.984 5.002-1.984 8.633 0 1.91.161 3.631.496 5.162q.492 2.308 1.488 3.938c.656 1.094 1.473 1.925 2.45 2.508q1.487.875 3.412.875c.656 0 1.313-.065 1.954-.204a7.6 7.6 0 0 0 1.925-.671 9.5 9.5 0 0 0 1.75-1.079c.54-.408.992-.875 1.342-1.4q.752-1.194 1.079-2.858.32-1.663.321-4.55zm40.74.495c-2.042.781-3.777 1.546-5.192 2.305-1.4.743-2.53 1.487-3.383 2.245-.86.744-1.48 1.488-1.867 2.246a5.1 5.1 0 0 0-.554 2.304q-.001 1.75 1.167 2.888c.795.744 1.837 1.108 3.121 1.108.933 0 1.793-.218 2.595-.671a7 7 0 0 0 2.13-1.895 9.9 9.9 0 0 0 1.429-2.859 10.8 10.8 0 0 0 .554-3.441zm0-2.304v-2.216c0-4.353-1.859-6.534-5.571-6.534q-.91 0-1.546.175c-.43.102-.787.277-1.079.525-.292.256-.554.613-.787 1.079q-.353.702-.671 1.721c-.394 1.036-.773 1.721-1.138 2.071-.372.336-.918.496-1.633.496-1.794 0-2.683-.89-2.683-2.683 0-1.707.904-3.034 2.712-3.967 1.823-.948 4.419-1.429 7.788-1.429 3.558 0 6.081.634 7.583 1.896 1.517 1.268 2.275 3.412 2.275 6.445v11.988q-.002 6.125 2.392 6.125a6 6 0 0 0 1.458-.175c.467-.131.853-.474 1.167-1.021l.758 1.283q-.646 1.227-2.362 2.071a8.4 8.4 0 0 1-3.588.817c-1.575 0-2.756-.496-3.529-1.488q-1.138-1.485-1.138-4.229h-.262q-1.378 2.627-3.85 4.171c-1.634 1.014-3.456 1.517-5.454 1.517-2.261 0-4.025-.569-5.309-1.721q-1.925-1.719-1.925-4.608 0-1.28.438-2.45.46-1.194 1.487-2.246c.678-.715 1.575-1.429 2.684-2.129q1.66-1.048 4.054-2.13zm33.563 9.567q0 2.251.088 3.529c.073.861.262 1.51.554 1.954q.46.676 1.312.904c.584.139 1.386.248 2.421.321v1.867h-14.233v-1.867q1.542-.111 2.45-.321.93-.229 1.4-.875.492-.633.612-1.837.144-1.192.146-3.238v-6.854q0-3.062-.087-5.075c-.059-1.356-.161-2.289-.292-2.8a5.2 5.2 0 0 0-.379-1.079c-.139-.27-.372-.481-.7-.642-.314-.175-.729-.277-1.254-.32a19 19 0 0 0-2.013-.088v-1.896l8.75-2.012.671 5.337h.292c1.589-1.808 3.274-3.15 5.046-4.025q2.646-1.312 5.862-1.312 3.38.001 5.688 1.371 2.298 1.347 3.208 3.908h.204a13.7 13.7 0 0 1 4.813-3.879 13.6 13.6 0 0 1 6.066-1.4c1.67 0 3.194.277 4.579.816q2.07.821 3.121 2.275c.642.817 1.094 1.896 1.371 3.238q.407 2.015.408 5.483v8.517q-.001 2.22.117 3.5c.095.86.277 1.517.554 1.983q.437.676 1.313.904.897.21 2.45.321v1.867h-14.234v-1.867q1.486-.052 2.392-.291c.62-.175 1.087-.482 1.4-.934q.492-.666.613-1.837c.094-.773.145-1.845.145-3.209v-6.737q-.002-3.063-.32-5.163c-.219-1.414-.576-2.566-1.08-3.441-.488-.875-1.137-1.502-1.954-1.896-.802-.386-1.772-.583-2.916-.583-1.575 0-3.056.437-4.434 1.312a9.2 9.2 0 0 0-3.208 3.5q-.294.525-.467 1.05c-.116.336-.218.7-.291 1.108a9 9 0 0 0-.146 1.488 58 58 0 0 0-.029 2.129v6.796q-.002 2.22.116 3.5c.073.86.263 1.517.554 1.983q.462.676 1.371.904c.598.139 1.429.248 2.479.321v1.867h-14.262v-1.867c1.006-.073 1.816-.182 2.421-.321.598-.153 1.05-.444 1.341-.875q.462-.633.584-1.837.144-1.192.146-3.238v-6.737c0-2.078-.11-3.821-.321-5.221-.219-1.414-.569-2.567-1.05-3.442-.467-.875-1.101-1.494-1.896-1.866-.78-.365-1.743-.554-2.888-.554-1.596 0-3.106.437-4.52 1.312-1.4.875-2.465 2.042-3.18 3.5-.175.35-.335.7-.466 1.05-.117.336-.219.7-.292 1.108-.058.409-.102.905-.117 1.488a60 60 0 0 0-.029 2.129z"/>
  </g>
</svg>
